<mxfile host="app.diagrams.net" modified="2024-05-28T20:15:31.662Z" agent="Mozilla/5.0 (Macintosh; Intel Mac OS X 10_15_7) AppleWebKit/537.36 (KHTML, like Gecko) Chrome/125.0.0.0 Safari/537.36" etag="I042AcJGBRRpwI1s5ts1" version="24.4.9" type="github">
  <diagram name="Seite-1" id="tAmj1homHStbpAjbaUKy">
    <mxGraphModel dx="2074" dy="680" grid="1" gridSize="10" guides="1" tooltips="1" connect="1" arrows="1" fold="1" page="1" pageScale="1" pageWidth="827" pageHeight="1169" math="0" shadow="0">
      <root>
        <mxCell id="0" />
        <mxCell id="1" parent="0" />
        <mxCell id="Isp_S8ehGKEJBU_QUmFu-1" value="Operator" style="shape=umlActor;verticalLabelPosition=bottom;verticalAlign=top;html=1;fontSize=16;" vertex="1" parent="1">
          <mxGeometry x="110" y="240" width="30" height="60" as="geometry" />
        </mxCell>
        <mxCell id="Isp_S8ehGKEJBU_QUmFu-2" value="Renew Developer" style="shape=umlActor;verticalLabelPosition=bottom;verticalAlign=top;html=1;fontSize=16;" vertex="1" parent="1">
          <mxGeometry x="660" y="230" width="30" height="60" as="geometry" />
        </mxCell>
        <mxCell id="Isp_S8ehGKEJBU_QUmFu-3" value="Renew Deployments" style="shape=umlActor;verticalLabelPosition=bottom;verticalAlign=top;html=1;fontSize=16;" vertex="1" parent="1">
          <mxGeometry x="660" y="420" width="30" height="60" as="geometry" />
        </mxCell>
        <mxCell id="Isp_S8ehGKEJBU_QUmFu-4" value="" style="html=1;whiteSpace=wrap;" vertex="1" parent="1">
          <mxGeometry x="190" y="70" width="360" height="490" as="geometry" />
        </mxCell>
        <mxCell id="Isp_S8ehGKEJBU_QUmFu-5" value="Renew Files rnw" style="text;align=center;fontStyle=1;verticalAlign=middle;spacingLeft=3;spacingRight=3;strokeColor=none;rotatable=0;points=[[0,0.5],[1,0.5]];portConstraint=eastwest;html=1;" vertex="1" parent="1">
          <mxGeometry x="320" y="70" width="80" height="26" as="geometry" />
        </mxCell>
        <mxCell id="Isp_S8ehGKEJBU_QUmFu-6" value="read" style="ellipse;whiteSpace=wrap;html=1;fontSize=15;" vertex="1" parent="1">
          <mxGeometry x="300" y="420" width="140" height="70" as="geometry" />
        </mxCell>
        <mxCell id="Isp_S8ehGKEJBU_QUmFu-7" value="add" style="ellipse;whiteSpace=wrap;html=1;fontSize=15;" vertex="1" parent="1">
          <mxGeometry x="300" y="140" width="140" height="70" as="geometry" />
        </mxCell>
        <mxCell id="Isp_S8ehGKEJBU_QUmFu-8" value="modify" style="ellipse;whiteSpace=wrap;html=1;fontSize=15;" vertex="1" parent="1">
          <mxGeometry x="300" y="220" width="140" height="70" as="geometry" />
        </mxCell>
        <mxCell id="Isp_S8ehGKEJBU_QUmFu-9" value="delete" style="ellipse;whiteSpace=wrap;html=1;fontSize=15;" vertex="1" parent="1">
          <mxGeometry x="300" y="300" width="140" height="70" as="geometry" />
        </mxCell>
        <mxCell id="Isp_S8ehGKEJBU_QUmFu-17" style="rounded=0;orthogonalLoop=1;jettySize=auto;html=1;exitX=0.5;exitY=0.5;exitDx=0;exitDy=0;exitPerimeter=0;entryX=0;entryY=0.5;entryDx=0;entryDy=0;endArrow=none;endFill=0;" edge="1" parent="1">
          <mxGeometry relative="1" as="geometry">
            <mxPoint x="125" y="270" as="sourcePoint" />
            <mxPoint x="300" y="175" as="targetPoint" />
          </mxGeometry>
        </mxCell>
        <mxCell id="Isp_S8ehGKEJBU_QUmFu-18" style="rounded=0;orthogonalLoop=1;jettySize=auto;html=1;exitX=0.5;exitY=0.5;exitDx=0;exitDy=0;exitPerimeter=0;entryX=0;entryY=0.5;entryDx=0;entryDy=0;endArrow=none;endFill=0;" edge="1" parent="1" source="Isp_S8ehGKEJBU_QUmFu-1" target="Isp_S8ehGKEJBU_QUmFu-8">
          <mxGeometry relative="1" as="geometry">
            <mxPoint x="135" y="280" as="sourcePoint" />
            <mxPoint x="310" y="185" as="targetPoint" />
          </mxGeometry>
        </mxCell>
        <mxCell id="Isp_S8ehGKEJBU_QUmFu-19" style="rounded=0;orthogonalLoop=1;jettySize=auto;html=1;exitX=0.5;exitY=0.5;exitDx=0;exitDy=0;exitPerimeter=0;entryX=0;entryY=0.5;entryDx=0;entryDy=0;endArrow=none;endFill=0;" edge="1" parent="1" source="Isp_S8ehGKEJBU_QUmFu-1" target="Isp_S8ehGKEJBU_QUmFu-9">
          <mxGeometry relative="1" as="geometry">
            <mxPoint x="135" y="280" as="sourcePoint" />
            <mxPoint x="310" y="265" as="targetPoint" />
          </mxGeometry>
        </mxCell>
        <mxCell id="Isp_S8ehGKEJBU_QUmFu-20" style="rounded=0;orthogonalLoop=1;jettySize=auto;html=1;exitX=0.5;exitY=0.5;exitDx=0;exitDy=0;exitPerimeter=0;entryX=0;entryY=0.5;entryDx=0;entryDy=0;endArrow=none;endFill=0;" edge="1" parent="1" source="Isp_S8ehGKEJBU_QUmFu-1" target="Isp_S8ehGKEJBU_QUmFu-6">
          <mxGeometry relative="1" as="geometry">
            <mxPoint x="135" y="280" as="sourcePoint" />
            <mxPoint x="310" y="345" as="targetPoint" />
          </mxGeometry>
        </mxCell>
        <mxCell id="Isp_S8ehGKEJBU_QUmFu-21" style="rounded=0;orthogonalLoop=1;jettySize=auto;html=1;entryX=0.5;entryY=0.5;entryDx=0;entryDy=0;endArrow=none;endFill=0;entryPerimeter=0;" edge="1" parent="1" source="Isp_S8ehGKEJBU_QUmFu-6" target="Isp_S8ehGKEJBU_QUmFu-3">
          <mxGeometry relative="1" as="geometry">
            <mxPoint x="135" y="280" as="sourcePoint" />
            <mxPoint x="310" y="465" as="targetPoint" />
          </mxGeometry>
        </mxCell>
        <mxCell id="Isp_S8ehGKEJBU_QUmFu-22" style="rounded=0;orthogonalLoop=1;jettySize=auto;html=1;entryX=0.5;entryY=0.5;entryDx=0;entryDy=0;endArrow=none;endFill=0;entryPerimeter=0;exitX=1;exitY=0.5;exitDx=0;exitDy=0;" edge="1" parent="1" source="Isp_S8ehGKEJBU_QUmFu-9" target="Isp_S8ehGKEJBU_QUmFu-2">
          <mxGeometry relative="1" as="geometry">
            <mxPoint x="450" y="461" as="sourcePoint" />
            <mxPoint x="645" y="450" as="targetPoint" />
          </mxGeometry>
        </mxCell>
        <mxCell id="Isp_S8ehGKEJBU_QUmFu-23" style="rounded=0;orthogonalLoop=1;jettySize=auto;html=1;entryX=0.5;entryY=0.5;entryDx=0;entryDy=0;endArrow=none;endFill=0;entryPerimeter=0;exitX=1;exitY=0.5;exitDx=0;exitDy=0;" edge="1" parent="1" source="Isp_S8ehGKEJBU_QUmFu-8" target="Isp_S8ehGKEJBU_QUmFu-2">
          <mxGeometry relative="1" as="geometry">
            <mxPoint x="450" y="345" as="sourcePoint" />
            <mxPoint x="645" y="200" as="targetPoint" />
          </mxGeometry>
        </mxCell>
        <mxCell id="Isp_S8ehGKEJBU_QUmFu-24" style="rounded=0;orthogonalLoop=1;jettySize=auto;html=1;entryX=0.5;entryY=0.5;entryDx=0;entryDy=0;endArrow=none;endFill=0;entryPerimeter=0;exitX=1;exitY=0.5;exitDx=0;exitDy=0;" edge="1" parent="1" source="Isp_S8ehGKEJBU_QUmFu-7" target="Isp_S8ehGKEJBU_QUmFu-2">
          <mxGeometry relative="1" as="geometry">
            <mxPoint x="450" y="265" as="sourcePoint" />
            <mxPoint x="645" y="200" as="targetPoint" />
          </mxGeometry>
        </mxCell>
        <mxCell id="Isp_S8ehGKEJBU_QUmFu-25" style="rounded=0;orthogonalLoop=1;jettySize=auto;html=1;endArrow=none;endFill=0;entryX=0.5;entryY=0.5;entryDx=0;entryDy=0;entryPerimeter=0;" edge="1" parent="1" source="Isp_S8ehGKEJBU_QUmFu-6" target="Isp_S8ehGKEJBU_QUmFu-2">
          <mxGeometry relative="1" as="geometry">
            <mxPoint x="450" y="345" as="sourcePoint" />
            <mxPoint x="630" y="190" as="targetPoint" />
          </mxGeometry>
        </mxCell>
      </root>
    </mxGraphModel>
  </diagram>
</mxfile>
